<?xml version="1.0" standalone="no"?>
<svg xmlns:xlink="http://www.w3.org/1999/xlink" id="wave" style="transform:rotate(0deg); transition: 0.3s" viewBox="0 0 1440 490" version="1.1" xmlns="http://www.w3.org/2000/svg"><defs><linearGradient id="sw-gradient-0" x1="0" x2="0" y1="1" y2="0"><stop stop-color="rgba(90, 133, 175, 1)" offset="0%"/><stop stop-color="rgba(90, 133, 175, 1)" offset="100%"/></linearGradient></defs><path style="transform:translate(0, 0px); opacity:1" fill="url(#sw-gradient-0)" d="M0,441L80,383.8C160,327,320,212,480,196C640,180,800,261,960,245C1120,229,1280,114,1440,114.3C1600,114,1760,229,1920,228.7C2080,229,2240,114,2400,89.8C2560,65,2720,131,2880,196C3040,261,3200,327,3360,326.7C3520,327,3680,261,3840,236.8C4000,212,4160,229,4320,212.3C4480,196,4640,147,4800,114.3C4960,82,5120,65,5280,106.2C5440,147,5600,245,5760,294C5920,343,6080,343,6240,294C6400,245,6560,147,6720,98C6880,49,7040,49,7200,89.8C7360,131,7520,212,7680,269.5C7840,327,8000,359,8160,359.3C8320,359,8480,327,8640,294C8800,261,8960,229,9120,187.8C9280,147,9440,98,9600,106.2C9760,114,9920,180,10080,171.5C10240,163,10400,82,10560,40.8C10720,0,10880,0,11040,8.2C11200,16,11360,33,11440,40.8L11520,49L11520,490L11440,490C11360,490,11200,490,11040,490C10880,490,10720,490,10560,490C10400,490,10240,490,10080,490C9920,490,9760,490,9600,490C9440,490,9280,490,9120,490C8960,490,8800,490,8640,490C8480,490,8320,490,8160,490C8000,490,7840,490,7680,490C7520,490,7360,490,7200,490C7040,490,6880,490,6720,490C6560,490,6400,490,6240,490C6080,490,5920,490,5760,490C5600,490,5440,490,5280,490C5120,490,4960,490,4800,490C4640,490,4480,490,4320,490C4160,490,4000,490,3840,490C3680,490,3520,490,3360,490C3200,490,3040,490,2880,490C2720,490,2560,490,2400,490C2240,490,2080,490,1920,490C1760,490,1600,490,1440,490C1280,490,1120,490,960,490C800,490,640,490,480,490C320,490,160,490,80,490L0,490Z"/></svg>